<?xml version="1.0" encoding="UTF-8" standalone="no"?>
<!DOCTYPE svg PUBLIC "-//W3C//DTD SVG 1.1//EN"
 "http://www.w3.org/Graphics/SVG/1.1/DTD/svg11.dtd">
<!-- Generated by graphviz version 2.28.0 (20110509.1543)
 -->
<!-- Title: G Pages: 1 -->
<svg width="858pt" height="1650pt"
 viewBox="0.00 0.00 858.00 1650.00" xmlns="http://www.w3.org/2000/svg" xmlns:xlink="http://www.w3.org/1999/xlink">
<g id="graph1" class="graph" transform="scale(1 1) rotate(0) translate(4 1646)">
<title>G</title>
<polygon fill="white" stroke="white" points="-4,5 -4,-1646 855,-1646 855,5 -4,5"/>
<g id="graph2" class="cluster"><title>cluster_Global</title>
<polyline fill="none" stroke="gray" points="20,-98 830,-98 "/>
<path fill="none" stroke="gray" d="M830,-98C836,-98 842,-104 842,-110"/>
<polyline fill="none" stroke="gray" points="842,-110 842,-1622 "/>
<path fill="none" stroke="gray" d="M842,-1622C842,-1628 836,-1634 830,-1634"/>
<polyline fill="none" stroke="gray" points="830,-1634 20,-1634 "/>
<path fill="none" stroke="gray" d="M20,-1634C14,-1634 8,-1628 8,-1622"/>
<polyline fill="none" stroke="gray" points="8,-1622 8,-110 "/>
<path fill="none" stroke="gray" d="M8,-110C8,-104 14,-98 20,-98"/>
<text text-anchor="middle" x="425" y="-1620.1" font-family="Times,serif" font-size="11.00" fill="gray">\</text>
</g>
<g id="graph3" class="cluster"><title>cluster_\Vinelab</title>
<polyline fill="none" stroke="gray" points="28,-106 822,-106 "/>
<path fill="none" stroke="gray" d="M822,-106C828,-106 834,-112 834,-118"/>
<polyline fill="none" stroke="gray" points="834,-118 834,-1593 "/>
<path fill="none" stroke="gray" d="M834,-1593C834,-1599 828,-1605 822,-1605"/>
<polyline fill="none" stroke="gray" points="822,-1605 28,-1605 "/>
<path fill="none" stroke="gray" d="M28,-1605C22,-1605 16,-1599 16,-1593"/>
<polyline fill="none" stroke="gray" points="16,-1593 16,-118 "/>
<path fill="none" stroke="gray" d="M16,-118C16,-112 22,-106 28,-106"/>
<text text-anchor="middle" x="425" y="-1591.1" font-family="Times,serif" font-size="11.00" fill="gray">Vinelab</text>
</g>
<g id="graph4" class="cluster"><title>cluster_\Vinelab\Auth</title>
<polyline fill="none" stroke="gray" points="36,-114 814,-114 "/>
<path fill="none" stroke="gray" d="M814,-114C820,-114 826,-120 826,-126"/>
<polyline fill="none" stroke="gray" points="826,-126 826,-1564 "/>
<path fill="none" stroke="gray" d="M826,-1564C826,-1570 820,-1576 814,-1576"/>
<polyline fill="none" stroke="gray" points="814,-1576 36,-1576 "/>
<path fill="none" stroke="gray" d="M36,-1576C30,-1576 24,-1570 24,-1564"/>
<polyline fill="none" stroke="gray" points="24,-1564 24,-126 "/>
<path fill="none" stroke="gray" d="M24,-126C24,-120 30,-114 36,-114"/>
<text text-anchor="middle" x="425" y="-1562.1" font-family="Times,serif" font-size="11.00" fill="gray">Auth</text>
</g>
<g id="graph5" class="cluster"><title>cluster_\Vinelab\Auth\Social</title>
<polyline fill="none" stroke="gray" points="333,-897 784,-897 "/>
<path fill="none" stroke="gray" d="M784,-897C790,-897 796,-903 796,-909"/>
<polyline fill="none" stroke="gray" points="796,-909 796,-1535 "/>
<path fill="none" stroke="gray" d="M796,-1535C796,-1541 790,-1547 784,-1547"/>
<polyline fill="none" stroke="gray" points="784,-1547 333,-1547 "/>
<path fill="none" stroke="gray" d="M333,-1547C327,-1547 321,-1541 321,-1535"/>
<polyline fill="none" stroke="gray" points="321,-1535 321,-909 "/>
<path fill="none" stroke="gray" d="M321,-909C321,-903 327,-897 333,-897"/>
<text text-anchor="middle" x="558.5" y="-1533.1" font-family="Times,serif" font-size="11.00" fill="gray">Social</text>
</g>
<g id="graph6" class="cluster"><title>cluster_\Vinelab\Auth\Social\Providers</title>
<polyline fill="none" stroke="gray" points="341,-949 776,-949 "/>
<path fill="none" stroke="gray" d="M776,-949C782,-949 788,-955 788,-961"/>
<polyline fill="none" stroke="gray" points="788,-961 788,-1462 "/>
<path fill="none" stroke="gray" d="M788,-1462C788,-1468 782,-1474 776,-1474"/>
<polyline fill="none" stroke="gray" points="776,-1474 341,-1474 "/>
<path fill="none" stroke="gray" d="M341,-1474C335,-1474 329,-1468 329,-1462"/>
<polyline fill="none" stroke="gray" points="329,-1462 329,-961 "/>
<path fill="none" stroke="gray" d="M329,-961C329,-955 335,-949 341,-949"/>
<text text-anchor="middle" x="558.5" y="-1460.1" font-family="Times,serif" font-size="11.00" fill="gray">Providers</text>
</g>
<g id="graph7" class="cluster"><title>cluster_\Vinelab\Auth\Social\Providers\Twitter</title>
<polyline fill="none" stroke="gray" points="349,-1075 768,-1075 "/>
<path fill="none" stroke="gray" d="M768,-1075C774,-1075 780,-1081 780,-1087"/>
<polyline fill="none" stroke="gray" points="780,-1087 780,-1335 "/>
<path fill="none" stroke="gray" d="M780,-1335C780,-1341 774,-1347 768,-1347"/>
<polyline fill="none" stroke="gray" points="768,-1347 349,-1347 "/>
<path fill="none" stroke="gray" d="M349,-1347C343,-1347 337,-1341 337,-1335"/>
<polyline fill="none" stroke="gray" points="337,-1335 337,-1087 "/>
<path fill="none" stroke="gray" d="M337,-1087C337,-1081 343,-1075 349,-1075"/>
<text text-anchor="middle" x="558.5" y="-1333.1" font-family="Times,serif" font-size="11.00" fill="gray">Twitter</text>
</g>
<g id="graph8" class="cluster"><title>cluster_\Vinelab\Auth\Social\Providers\Twitter\Contracts</title>
<polyline fill="none" stroke="gray" points="357,-1083 479,-1083 "/>
<path fill="none" stroke="gray" d="M479,-1083C485,-1083 491,-1089 491,-1095"/>
<polyline fill="none" stroke="gray" points="491,-1095 491,-1306 "/>
<path fill="none" stroke="gray" d="M491,-1306C491,-1312 485,-1318 479,-1318"/>
<polyline fill="none" stroke="gray" points="479,-1318 357,-1318 "/>
<path fill="none" stroke="gray" d="M357,-1318C351,-1318 345,-1312 345,-1306"/>
<polyline fill="none" stroke="gray" points="345,-1306 345,-1095 "/>
<path fill="none" stroke="gray" d="M345,-1095C345,-1089 351,-1083 357,-1083"/>
<text text-anchor="middle" x="418" y="-1304.1" font-family="Times,serif" font-size="11.00" fill="gray">Contracts</text>
</g>
<g id="graph9" class="cluster"><title>cluster_\Vinelab\Auth\Social\Providers\Facebook</title>
<polyline fill="none" stroke="gray" points="357,-957 760,-957 "/>
<path fill="none" stroke="gray" d="M760,-957C766,-957 772,-963 772,-969"/>
<polyline fill="none" stroke="gray" points="772,-969 772,-1055 "/>
<path fill="none" stroke="gray" d="M772,-1055C772,-1061 766,-1067 760,-1067"/>
<polyline fill="none" stroke="gray" points="760,-1067 357,-1067 "/>
<path fill="none" stroke="gray" d="M357,-1067C351,-1067 345,-1061 345,-1055"/>
<polyline fill="none" stroke="gray" points="345,-1055 345,-969 "/>
<path fill="none" stroke="gray" d="M345,-969C345,-963 351,-957 357,-957"/>
<text text-anchor="middle" x="558.5" y="-1053.1" font-family="Times,serif" font-size="11.00" fill="gray">Facebook</text>
</g>
<g id="graph10" class="cluster"><title>cluster_\Vinelab\Auth\Social\Providers\Facebook\Contracts</title>
<polyline fill="none" stroke="gray" points="365,-965 471,-965 "/>
<path fill="none" stroke="gray" d="M471,-965C477,-965 483,-971 483,-977"/>
<polyline fill="none" stroke="gray" points="483,-977 483,-1026 "/>
<path fill="none" stroke="gray" d="M483,-1026C483,-1032 477,-1038 471,-1038"/>
<polyline fill="none" stroke="gray" points="471,-1038 365,-1038 "/>
<path fill="none" stroke="gray" d="M365,-1038C359,-1038 353,-1032 353,-1026"/>
<polyline fill="none" stroke="gray" points="353,-1026 353,-977 "/>
<path fill="none" stroke="gray" d="M353,-977C353,-971 359,-965 365,-965"/>
<text text-anchor="middle" x="418" y="-1024.1" font-family="Times,serif" font-size="11.00" fill="gray">Contracts</text>
</g>
<g id="graph11" class="cluster"><title>cluster_\Vinelab\Auth\Contracts</title>
<polyline fill="none" stroke="gray" points="44,-1081 172,-1081 "/>
<path fill="none" stroke="gray" d="M172,-1081C178,-1081 184,-1087 184,-1093"/>
<polyline fill="none" stroke="gray" points="184,-1093 184,-1304 "/>
<path fill="none" stroke="gray" d="M184,-1304C184,-1310 178,-1316 172,-1316"/>
<polyline fill="none" stroke="gray" points="172,-1316 44,-1316 "/>
<path fill="none" stroke="gray" d="M44,-1316C38,-1316 32,-1310 32,-1304"/>
<polyline fill="none" stroke="gray" points="32,-1304 32,-1093 "/>
<path fill="none" stroke="gray" d="M32,-1093C32,-1087 38,-1081 44,-1081"/>
<text text-anchor="middle" x="108" y="-1302.1" font-family="Times,serif" font-size="11.00" fill="gray">Contracts</text>
</g>
<g id="graph12" class="cluster"><title>cluster_\Vinelab\Auth\Exceptions</title>
<polyline fill="none" stroke="gray" points="367,-303 806,-303 "/>
<path fill="none" stroke="gray" d="M806,-303C812,-303 818,-309 818,-315"/>
<polyline fill="none" stroke="gray" points="818,-315 818,-796 "/>
<path fill="none" stroke="gray" d="M818,-796C818,-802 812,-808 806,-808"/>
<polyline fill="none" stroke="gray" points="806,-808 367,-808 "/>
<path fill="none" stroke="gray" d="M367,-808C361,-808 355,-802 355,-796"/>
<polyline fill="none" stroke="gray" points="355,-796 355,-315 "/>
<path fill="none" stroke="gray" d="M355,-315C355,-309 361,-303 367,-303"/>
<text text-anchor="middle" x="586.5" y="-794.1" font-family="Times,serif" font-size="11.00" fill="gray">Exceptions</text>
</g>
<g id="graph13" class="cluster"><title>cluster_\Vinelab\Auth\Cache</title>
<polyline fill="none" stroke="gray" points="395,-816 441,-816 "/>
<path fill="none" stroke="gray" d="M441,-816C447,-816 453,-822 453,-828"/>
<polyline fill="none" stroke="gray" points="453,-828 453,-877 "/>
<path fill="none" stroke="gray" d="M453,-877C453,-883 447,-889 441,-889"/>
<polyline fill="none" stroke="gray" points="441,-889 395,-889 "/>
<path fill="none" stroke="gray" d="M395,-889C389,-889 383,-883 383,-877"/>
<polyline fill="none" stroke="gray" points="383,-877 383,-828 "/>
<path fill="none" stroke="gray" d="M383,-828C383,-822 389,-816 395,-816"/>
<text text-anchor="middle" x="418" y="-875.1" font-family="Times,serif" font-size="11.00" fill="gray">Cache</text>
</g>
<g id="graph14" class="cluster"><title>cluster_\Vinelab\Auth\Facades</title>
<polyline fill="none" stroke="gray" points="703,-222 749,-222 "/>
<path fill="none" stroke="gray" d="M749,-222C755,-222 761,-228 761,-234"/>
<polyline fill="none" stroke="gray" points="761,-234 761,-283 "/>
<path fill="none" stroke="gray" d="M761,-283C761,-289 755,-295 749,-295"/>
<polyline fill="none" stroke="gray" points="749,-295 703,-295 "/>
<path fill="none" stroke="gray" d="M703,-295C697,-295 691,-289 691,-283"/>
<polyline fill="none" stroke="gray" points="691,-283 691,-234 "/>
<path fill="none" stroke="gray" d="M691,-234C691,-228 697,-222 703,-222"/>
<text text-anchor="middle" x="726" y="-281.1" font-family="Times,serif" font-size="11.00" fill="gray">Facades</text>
</g>
<!-- \\Vinelab\\Auth\\Social\\Providers\\Twitter\\Contracts\\OAuthTokenInterface -->
<g id="node8" class="node"><title>\\Vinelab\\Auth\\Social\\Providers\\Twitter\\Contracts\\OAuthTokenInterface</title>
<polygon fill="none" stroke="black" points="474.616,-1127 361.384,-1127 361.384,-1091 474.616,-1091 474.616,-1127"/>
<text text-anchor="middle" x="418" y="-1105.7" font-family="Times,serif" font-size="11.00">OAuthTokenInterface</text>
</g>
<!-- \\Vinelab\\Auth\\Social\\Providers\\Twitter\\Contracts\\OAuthInterface -->
<g id="node9" class="node"><title>\\Vinelab\\Auth\\Social\\Providers\\Twitter\\Contracts\\OAuthInterface</title>
<polygon fill="none" stroke="black" points="460.513,-1289 375.487,-1289 375.487,-1253 460.513,-1253 460.513,-1289"/>
<text text-anchor="middle" x="418" y="-1267.7" font-family="Times,serif" font-size="11.00">OAuthInterface</text>
</g>
<!-- \\Vinelab\\Auth\\Social\\Providers\\Twitter\\Contracts\\OAuthSignatureInterface -->
<g id="node10" class="node"><title>\\Vinelab\\Auth\\Social\\Providers\\Twitter\\Contracts\\OAuthSignatureInterface</title>
<polygon fill="none" stroke="black" points="481.669,-1235 354.331,-1235 354.331,-1199 481.669,-1199 481.669,-1235"/>
<text text-anchor="middle" x="418" y="-1213.7" font-family="Times,serif" font-size="11.00">OAuthSignatureInterface</text>
</g>
<!-- \\Vinelab\\Auth\\Social\\Providers\\Twitter\\Contracts\\OAuthConsumerInterface -->
<g id="node11" class="node"><title>\\Vinelab\\Auth\\Social\\Providers\\Twitter\\Contracts\\OAuthConsumerInterface</title>
<polygon fill="none" stroke="black" points="483.229,-1181 352.771,-1181 352.771,-1145 483.229,-1145 483.229,-1181"/>
<text text-anchor="middle" x="418" y="-1159.7" font-family="Times,serif" font-size="11.00">OAuthConsumerInterface</text>
</g>
<!-- \\Vinelab\\Auth\\Social\\Providers\\Twitter\\OAuth -->
<g id="node12" class="node"><title>\\Vinelab\\Auth\\Social\\Providers\\Twitter\\OAuth</title>
<polygon fill="none" stroke="black" points="753,-1289 699,-1289 699,-1253 753,-1253 753,-1289"/>
<text text-anchor="middle" x="726" y="-1267.7" font-family="Times,serif" font-size="11.00">OAuth</text>
</g>
<!-- \\Vinelab\\Auth\\Social\\Providers\\Twitter\\OAuth&#45;&gt;\\Vinelab\\Auth\\Social\\Providers\\Twitter\\Contracts\\OAuthInterface -->
<g id="edge15" class="edge"><title>\\Vinelab\\Auth\\Social\\Providers\\Twitter\\OAuth&#45;&gt;\\Vinelab\\Auth\\Social\\Providers\\Twitter\\Contracts\\OAuthInterface</title>
<path fill="none" stroke="black" stroke-dasharray="1,5" d="M698.911,-1271C648.493,-1271 536.842,-1271 470.801,-1271"/>
<polygon fill="none" stroke="black" points="470.609,-1267.5 460.609,-1271 470.609,-1274.5 470.609,-1267.5"/>
</g>
<!-- \\Vinelab\\Auth\\Social\\Providers\\Twitter\\OAuthSignature -->
<g id="node13" class="node"><title>\\Vinelab\\Auth\\Social\\Providers\\Twitter\\OAuthSignature</title>
<polygon fill="none" stroke="black" points="770.095,-1235 681.905,-1235 681.905,-1199 770.095,-1199 770.095,-1235"/>
<text text-anchor="middle" x="726" y="-1213.7" font-family="Times,serif" font-size="11.00">OAuthSignature</text>
</g>
<!-- \\Vinelab\\Auth\\Social\\Providers\\Twitter\\OAuthSignature&#45;&gt;\\Vinelab\\Auth\\Social\\Providers\\Twitter\\Contracts\\OAuthSignatureInterface -->
<g id="edge21" class="edge"><title>\\Vinelab\\Auth\\Social\\Providers\\Twitter\\OAuthSignature&#45;&gt;\\Vinelab\\Auth\\Social\\Providers\\Twitter\\Contracts\\OAuthSignatureInterface</title>
<path fill="none" stroke="black" stroke-dasharray="1,5" d="M681.807,-1217C632.439,-1217 550.834,-1217 491.638,-1217"/>
<polygon fill="none" stroke="black" points="491.6,-1213.5 481.6,-1217 491.6,-1220.5 491.6,-1213.5"/>
</g>
<!-- \\Vinelab\\Auth\\Social\\Providers\\Twitter\\OAuthConsumer -->
<g id="node14" class="node"><title>\\Vinelab\\Auth\\Social\\Providers\\Twitter\\OAuthConsumer</title>
<polygon fill="none" stroke="black" points="771.654,-1181 680.346,-1181 680.346,-1145 771.654,-1145 771.654,-1181"/>
<text text-anchor="middle" x="726" y="-1159.7" font-family="Times,serif" font-size="11.00">OAuthConsumer</text>
</g>
<!-- \\Vinelab\\Auth\\Social\\Providers\\Twitter\\OAuthConsumer&#45;&gt;\\Vinelab\\Auth\\Social\\Providers\\Twitter\\Contracts\\OAuthConsumerInterface -->
<g id="edge49" class="edge"><title>\\Vinelab\\Auth\\Social\\Providers\\Twitter\\OAuthConsumer&#45;&gt;\\Vinelab\\Auth\\Social\\Providers\\Twitter\\Contracts\\OAuthConsumerInterface</title>
<path fill="none" stroke="black" stroke-dasharray="1,5" d="M680.177,-1163C631.161,-1163 551.816,-1163 493.427,-1163"/>
<polygon fill="none" stroke="black" points="493.147,-1159.5 483.147,-1163 493.147,-1166.5 493.147,-1159.5"/>
</g>
<!-- \\Vinelab\\Auth\\Social\\Providers\\Twitter\\OAuthToken -->
<g id="node15" class="node"><title>\\Vinelab\\Auth\\Social\\Providers\\Twitter\\OAuthToken</title>
<polygon fill="none" stroke="black" points="763.042,-1127 688.958,-1127 688.958,-1091 763.042,-1091 763.042,-1127"/>
<text text-anchor="middle" x="726" y="-1105.7" font-family="Times,serif" font-size="11.00">OAuthToken</text>
</g>
<!-- \\Vinelab\\Auth\\Social\\Providers\\Twitter\\OAuthToken&#45;&gt;\\Vinelab\\Auth\\Social\\Providers\\Twitter\\Contracts\\OAuthTokenInterface -->
<g id="edge53" class="edge"><title>\\Vinelab\\Auth\\Social\\Providers\\Twitter\\OAuthToken&#45;&gt;\\Vinelab\\Auth\\Social\\Providers\\Twitter\\Contracts\\OAuthTokenInterface</title>
<path fill="none" stroke="black" stroke-dasharray="1,5" d="M688.696,-1109C638.533,-1109 547.166,-1109 484.806,-1109"/>
<polygon fill="none" stroke="black" points="484.674,-1105.5 474.674,-1109 484.674,-1112.5 484.674,-1105.5"/>
</g>
<!-- \\Vinelab\\Auth\\Social\\Providers\\Facebook\\Contracts\\AccessTokenInterface -->
<g id="node18" class="node"><title>\\Vinelab\\Auth\\Social\\Providers\\Facebook\\Contracts\\AccessTokenInterface</title>
<polygon fill="none" stroke="black" points="475.323,-1009 360.677,-1009 360.677,-973 475.323,-973 475.323,-1009"/>
<text text-anchor="middle" x="418" y="-987.7" font-family="Times,serif" font-size="11.00">AccessTokenInterface</text>
</g>
<!-- \\Vinelab\\Auth\\Social\\Providers\\Facebook\\AccessToken -->
<g id="node19" class="node"><title>\\Vinelab\\Auth\\Social\\Providers\\Facebook\\AccessToken</title>
<polygon fill="none" stroke="black" points="763.749,-1009 688.251,-1009 688.251,-973 763.749,-973 763.749,-1009"/>
<text text-anchor="middle" x="726" y="-987.7" font-family="Times,serif" font-size="11.00">AccessToken</text>
</g>
<!-- \\Vinelab\\Auth\\Social\\Providers\\Facebook\\AccessToken&#45;&gt;\\Vinelab\\Auth\\Social\\Providers\\Facebook\\Contracts\\AccessTokenInterface -->
<g id="edge57" class="edge"><title>\\Vinelab\\Auth\\Social\\Providers\\Facebook\\AccessToken&#45;&gt;\\Vinelab\\Auth\\Social\\Providers\\Facebook\\Contracts\\AccessTokenInterface</title>
<path fill="none" stroke="black" stroke-dasharray="1,5" d="M688.089,-991C637.948,-991 547.451,-991 485.357,-991"/>
<polygon fill="none" stroke="black" points="485.263,-987.5 475.263,-991 485.263,-994.5 485.263,-987.5"/>
</g>
<!-- \\Vinelab\\Auth\\Social\\Providers\\Facebook -->
<g id="node20" class="node"><title>\\Vinelab\\Auth\\Social\\Providers\\Facebook</title>
<polygon fill="none" stroke="black" points="755.264,-1445 696.736,-1445 696.736,-1409 755.264,-1409 755.264,-1445"/>
<text text-anchor="middle" x="726" y="-1423.7" font-family="Times,serif" font-size="11.00">Facebook</text>
</g>
<!-- \\Vinelab\\Auth\\Social\\Provider -->
<g id="node23" class="node"><title>\\Vinelab\\Auth\\Social\\Provider</title>
<polygon fill="none" stroke="black" points="452.5,-1518 383.5,-1518 383.5,-1482 452.5,-1482 452.5,-1518"/>
<text text-anchor="start" x="392" y="-1502.6" font-family="Times,serif" font-size="11.00">«abstract»</text>
<text text-anchor="start" x="399.5" y="-1491.6" font-family="Times,serif" font-size="11.00">Provider</text>
</g>
<!-- \\Vinelab\\Auth\\Social\\Providers\\Facebook&#45;&gt;\\Vinelab\\Auth\\Social\\Provider -->
<g id="edge19" class="edge"><title>\\Vinelab\\Auth\\Social\\Providers\\Facebook&#45;&gt;\\Vinelab\\Auth\\Social\\Provider</title>
<path fill="none" stroke="black" d="M696.487,-1433.8C642.688,-1446.64 525.916,-1474.49 462.349,-1489.66"/>
<polygon fill="none" stroke="black" points="461.536,-1486.25 452.622,-1491.98 463.161,-1493.06 461.536,-1486.25"/>
</g>
<!-- \\Vinelab\\Auth\\Social\\Providers\\Twitter -->
<g id="node21" class="node"><title>\\Vinelab\\Auth\\Social\\Providers\\Twitter</title>
<polygon fill="none" stroke="black" points="753,-1391 699,-1391 699,-1355 753,-1355 753,-1391"/>
<text text-anchor="middle" x="726" y="-1369.7" font-family="Times,serif" font-size="11.00">Twitter</text>
</g>
<!-- \\Vinelab\\Auth\\Social\\Providers\\Twitter&#45;&gt;\\Vinelab\\Auth\\Social\\Provider -->
<g id="edge55" class="edge"><title>\\Vinelab\\Auth\\Social\\Providers\\Twitter&#45;&gt;\\Vinelab\\Auth\\Social\\Provider</title>
<path fill="none" stroke="black" d="M698.953,-1380.69C682.472,-1385.74 660.804,-1392.75 642,-1400 578.06,-1424.65 506.037,-1458 461.581,-1479.26"/>
<polygon fill="none" stroke="black" points="460.027,-1476.13 452.526,-1483.61 463.056,-1482.44 460.027,-1476.13"/>
</g>
<!-- \\Vinelab\\Auth\\Social\\Profile -->
<g id="node22" class="node"><title>\\Vinelab\\Auth\\Social\\Profile</title>
<polygon fill="none" stroke="black" points="753,-1518 699,-1518 699,-1482 753,-1482 753,-1518"/>
<text text-anchor="middle" x="726" y="-1496.7" font-family="Times,serif" font-size="11.00">Profile</text>
</g>
<!-- \\Vinelab\\Auth\\Contracts\\ProfileInterface -->
<g id="node28" class="node"><title>\\Vinelab\\Auth\\Contracts\\ProfileInterface</title>
<polygon fill="none" stroke="black" points="150.51,-1287 65.4904,-1287 65.4904,-1251 150.51,-1251 150.51,-1287"/>
<text text-anchor="middle" x="108" y="-1265.7" font-family="Times,serif" font-size="11.00">ProfileInterface</text>
</g>
<!-- \\Vinelab\\Auth\\Social\\Profile&#45;&gt;\\Vinelab\\Auth\\Contracts\\ProfileInterface -->
<g id="edge17" class="edge"><title>\\Vinelab\\Auth\\Social\\Profile&#45;&gt;\\Vinelab\\Auth\\Contracts\\ProfileInterface</title>
<path fill="none" stroke="black" stroke-dasharray="1,5" d="M698.973,-1510.66C625.334,-1539.02 411.436,-1608.75 266,-1527 176.684,-1476.8 132.245,-1352.91 116.212,-1297.08"/>
<polygon fill="none" stroke="black" points="119.509,-1295.87 113.462,-1287.17 112.764,-1297.75 119.509,-1295.87"/>
</g>
<!-- \\Vinelab\\Auth\\Contracts\\ProviderInterface -->
<g id="node29" class="node"><title>\\Vinelab\\Auth\\Contracts\\ProviderInterface</title>
<polygon fill="none" stroke="black" points="154.453,-1233 61.5473,-1233 61.5473,-1197 154.453,-1197 154.453,-1233"/>
<text text-anchor="middle" x="108" y="-1211.7" font-family="Times,serif" font-size="11.00">ProviderInterface</text>
</g>
<!-- \\Vinelab\\Auth\\Social\\Provider&#45;&gt;\\Vinelab\\Auth\\Contracts\\ProviderInterface -->
<g id="edge23" class="edge"><title>\\Vinelab\\Auth\\Social\\Provider&#45;&gt;\\Vinelab\\Auth\\Contracts\\ProviderInterface</title>
<path fill="none" stroke="black" stroke-dasharray="1,5" d="M401.496,-1481.8C352,-1423.72 200.611,-1246.36 194,-1242 185.085,-1236.12 174.805,-1231.45 164.542,-1227.77"/>
<polygon fill="none" stroke="black" points="165.347,-1224.35 154.753,-1224.53 163.147,-1230.99 165.347,-1224.35"/>
</g>
<!-- \\Vinelab\\Auth\\Social\\ProvidersManager -->
<g id="node24" class="node"><title>\\Vinelab\\Auth\\Social\\ProvidersManager</title>
<polygon fill="none" stroke="black" points="774.745,-941 677.255,-941 677.255,-905 774.745,-905 774.745,-941"/>
<text text-anchor="middle" x="726" y="-919.7" font-family="Times,serif" font-size="11.00">ProvidersManager</text>
</g>
<!-- \\Vinelab\\Auth\\Contracts\\ProvidersManagerInterface -->
<g id="node26" class="node"><title>\\Vinelab\\Auth\\Contracts\\ProvidersManagerInterface</title>
<polygon fill="none" stroke="black" points="176.319,-1179 39.6805,-1179 39.6805,-1143 176.319,-1143 176.319,-1179"/>
<text text-anchor="middle" x="108" y="-1157.7" font-family="Times,serif" font-size="11.00">ProvidersManagerInterface</text>
</g>
<!-- \\Vinelab\\Auth\\Social\\ProvidersManager&#45;&gt;\\Vinelab\\Auth\\Contracts\\ProvidersManagerInterface -->
<g id="edge59" class="edge"><title>\\Vinelab\\Auth\\Social\\ProvidersManager&#45;&gt;\\Vinelab\\Auth\\Contracts\\ProvidersManagerInterface</title>
<path fill="none" stroke="black" stroke-dasharray="1,5" d="M677.253,-912.127C587.257,-894.557 390.419,-870.378 266,-961 198.682,-1010.03 255.389,-1077.72 194,-1134 191.352,-1136.43 188.485,-1138.64 185.462,-1140.65"/>
<polygon fill="none" stroke="black" points="183.469,-1137.76 176.577,-1145.81 186.983,-1143.81 183.469,-1137.76"/>
</g>
<!-- \\Vinelab\\Auth\\Contracts\\StoreInterface -->
<g id="node27" class="node"><title>\\Vinelab\\Auth\\Contracts\\StoreInterface</title>
<polygon fill="none" stroke="black" points="147.291,-1125 68.7087,-1125 68.7087,-1089 147.291,-1089 147.291,-1125"/>
<text text-anchor="middle" x="108" y="-1103.7" font-family="Times,serif" font-size="11.00">StoreInterface</text>
</g>
<!-- \\Vinelab\\Auth\\Exceptions\\SocialAuthException -->
<g id="node31" class="node"><title>\\Vinelab\\Auth\\Exceptions\\SocialAuthException</title>
<polygon fill="none" stroke="black" points="473.092,-536 362.908,-536 362.908,-500 473.092,-500 473.092,-536"/>
<text text-anchor="middle" x="418" y="-514.7" font-family="Times,serif" font-size="11.00">SocialAuthException</text>
</g>
<!-- \\RuntimeException -->
<g id="node53" class="node"><title>\\RuntimeException</title>
<ellipse fill="none" stroke="black" cx="108" cy="-72" rx="86.2754" ry="18"/>
<text text-anchor="middle" x="108" y="-67.8" font-family="Times,serif" font-size="14.00" fill="gray">\RuntimeException</text>
</g>
<!-- \\Vinelab\\Auth\\Exceptions\\SocialAuthException&#45;&gt;\\RuntimeException -->
<g id="edge25" class="edge"><title>\\Vinelab\\Auth\\Exceptions\\SocialAuthException&#45;&gt;\\RuntimeException</title>
<path fill="none" stroke="black" d="M362.725,-523.004C331.291,-523.001 292.77,-517.667 266,-496 139.222,-393.391 114.815,-178.028 110.118,-100.54"/>
<polygon fill="none" stroke="black" points="113.591,-99.9347 109.559,-90.1372 106.601,-100.311 113.591,-99.9347"/>
</g>
<!-- \\Vinelab\\Auth\\Exceptions\\ProviderNotSupportedException -->
<g id="node32" class="node"><title>\\Vinelab\\Auth\\Exceptions\\ProviderNotSupportedException</title>
<polygon fill="none" stroke="black" points="806.193,-779 645.807,-779 645.807,-743 806.193,-743 806.193,-779"/>
<text text-anchor="middle" x="726" y="-757.7" font-family="Times,serif" font-size="11.00">ProviderNotSupportedException</text>
</g>
<!-- \\Vinelab\\Auth\\Exceptions\\ProviderNotSupportedException&#45;&gt;\\Vinelab\\Auth\\Exceptions\\SocialAuthException -->
<g id="edge27" class="edge"><title>\\Vinelab\\Auth\\Exceptions\\ProviderNotSupportedException&#45;&gt;\\Vinelab\\Auth\\Exceptions\\SocialAuthException</title>
<path fill="none" stroke="black" d="M659.399,-742.824C653.349,-740.215 647.452,-737.283 642,-734 555.025,-681.63 475.312,-589.389 439.261,-544.301"/>
<polygon fill="none" stroke="black" points="441.796,-541.863 432.845,-536.194 436.307,-546.208 441.796,-541.863"/>
</g>
<!-- \\Vinelab\\Auth\\Exceptions\\InvalidProviderSettingsException -->
<g id="node33" class="node"><title>\\Vinelab\\Auth\\Exceptions\\InvalidProviderSettingsException</title>
<polygon fill="none" stroke="black" points="808.583,-725 643.417,-725 643.417,-689 808.583,-689 808.583,-725"/>
<text text-anchor="middle" x="726" y="-703.7" font-family="Times,serif" font-size="11.00">InvalidProviderSettingsException</text>
</g>
<!-- \\Vinelab\\Auth\\Exceptions\\InvalidProviderSettingsException&#45;&gt;\\Vinelab\\Auth\\Exceptions\\SocialAuthException -->
<g id="edge29" class="edge"><title>\\Vinelab\\Auth\\Exceptions\\InvalidProviderSettingsException&#45;&gt;\\Vinelab\\Auth\\Exceptions\\SocialAuthException</title>
<path fill="none" stroke="black" d="M662.053,-688.863C655.158,-686.191 648.345,-683.234 642,-680 565.659,-641.088 487.011,-577.353 446.633,-542.558"/>
<polygon fill="none" stroke="black" points="448.926,-539.913 439.08,-536.001 444.337,-545.199 448.926,-539.913"/>
</g>
<!-- \\Vinelab\\Auth\\Exceptions\\AuthenticationException -->
<g id="node34" class="node"><title>\\Vinelab\\Auth\\Exceptions\\AuthenticationException</title>
<polygon fill="none" stroke="black" points="788.974,-671 663.026,-671 663.026,-635 788.974,-635 788.974,-671"/>
<text text-anchor="middle" x="726" y="-649.7" font-family="Times,serif" font-size="11.00">AuthenticationException</text>
</g>
<!-- \\Vinelab\\Auth\\Exceptions\\AuthenticationException&#45;&gt;\\Vinelab\\Auth\\Exceptions\\SocialAuthException -->
<g id="edge31" class="edge"><title>\\Vinelab\\Auth\\Exceptions\\AuthenticationException&#45;&gt;\\Vinelab\\Auth\\Exceptions\\SocialAuthException</title>
<path fill="none" stroke="black" d="M666.145,-634.96C657.971,-632.134 649.731,-629.113 642,-626 577.737,-600.127 506.076,-564.066 461.757,-540.874"/>
<polygon fill="none" stroke="black" points="463.208,-537.683 452.728,-536.129 459.952,-543.879 463.208,-537.683"/>
</g>
<!-- \\Vinelab\\Auth\\Exceptions\\InvalidProfileException -->
<g id="node35" class="node"><title>\\Vinelab\\Auth\\Exceptions\\InvalidProfileException</title>
<polygon fill="none" stroke="black" points="786.694,-617 665.306,-617 665.306,-581 786.694,-581 786.694,-617"/>
<text text-anchor="middle" x="726" y="-595.7" font-family="Times,serif" font-size="11.00">InvalidProfileException</text>
</g>
<!-- \\Vinelab\\Auth\\Exceptions\\InvalidProfileException&#45;&gt;\\Vinelab\\Auth\\Exceptions\\SocialAuthException -->
<g id="edge33" class="edge"><title>\\Vinelab\\Auth\\Exceptions\\InvalidProfileException&#45;&gt;\\Vinelab\\Auth\\Exceptions\\SocialAuthException</title>
<path fill="none" stroke="black" d="M665.274,-583.19C612.796,-569.299 536.644,-549.141 482.945,-534.927"/>
<polygon fill="none" stroke="black" points="483.752,-531.52 473.19,-532.344 481.961,-538.287 483.752,-531.52"/>
</g>
<!-- \\Vinelab\\Auth\\Exceptions\\AccessTokenException -->
<g id="node36" class="node"><title>\\Vinelab\\Auth\\Exceptions\\AccessTokenException</title>
<polygon fill="none" stroke="black" points="785.848,-563 666.152,-563 666.152,-527 785.848,-527 785.848,-563"/>
<text text-anchor="middle" x="726" y="-541.7" font-family="Times,serif" font-size="11.00">AccessTokenException</text>
</g>
<!-- \\Vinelab\\Auth\\Exceptions\\AccessTokenException&#45;&gt;\\Vinelab\\Auth\\Exceptions\\SocialAuthException -->
<g id="edge35" class="edge"><title>\\Vinelab\\Auth\\Exceptions\\AccessTokenException&#45;&gt;\\Vinelab\\Auth\\Exceptions\\SocialAuthException</title>
<path fill="none" stroke="black" d="M666,-539.794C613.627,-535.173 537.261,-528.435 483.335,-523.677"/>
<polygon fill="none" stroke="black" points="483.469,-520.175 473.2,-522.782 482.854,-527.148 483.469,-520.175"/>
</g>
<!-- \\Vinelab\\Auth\\Exceptions\\InvalidFacebookCodeException -->
<g id="node37" class="node"><title>\\Vinelab\\Auth\\Exceptions\\InvalidFacebookCodeException</title>
<polygon fill="none" stroke="black" points="804.741,-509 647.259,-509 647.259,-473 804.741,-473 804.741,-509"/>
<text text-anchor="middle" x="726" y="-487.7" font-family="Times,serif" font-size="11.00">InvalidFacebookCodeException</text>
</g>
<!-- \\Vinelab\\Auth\\Exceptions\\InvalidFacebookCodeException&#45;&gt;\\Vinelab\\Auth\\Exceptions\\SocialAuthException -->
<g id="edge37" class="edge"><title>\\Vinelab\\Auth\\Exceptions\\InvalidFacebookCodeException&#45;&gt;\\Vinelab\\Auth\\Exceptions\\SocialAuthException</title>
<path fill="none" stroke="black" d="M646.992,-497.883C596.347,-502.352 531.138,-508.105 483.441,-512.314"/>
<polygon fill="none" stroke="black" points="482.891,-508.849 473.237,-513.214 483.506,-515.822 482.891,-508.849"/>
</g>
<!-- \\Vinelab\\Auth\\Exceptions\\InvalidOAuthTokenException -->
<g id="node38" class="node"><title>\\Vinelab\\Auth\\Exceptions\\InvalidOAuthTokenException</title>
<polygon fill="none" stroke="black" points="800.8,-455 651.2,-455 651.2,-419 800.8,-419 800.8,-455"/>
<text text-anchor="middle" x="726" y="-433.7" font-family="Times,serif" font-size="11.00">InvalidOAuthTokenException</text>
</g>
<!-- \\Vinelab\\Auth\\Exceptions\\InvalidOAuthTokenException&#45;&gt;\\Vinelab\\Auth\\Exceptions\\SocialAuthException -->
<g id="edge39" class="edge"><title>\\Vinelab\\Auth\\Exceptions\\InvalidOAuthTokenException&#45;&gt;\\Vinelab\\Auth\\Exceptions\\SocialAuthException</title>
<path fill="none" stroke="black" d="M666.684,-455.123C658.351,-457.958 649.923,-460.96 642,-464 609.306,-476.544 603.64,-486.274 570,-496 542.13,-504.058 510.473,-509.248 483.368,-512.549"/>
<polygon fill="none" stroke="black" points="482.752,-509.097 473.22,-513.723 483.557,-516.05 482.752,-509.097"/>
</g>
<!-- \\Vinelab\\Auth\\Exceptions\\AuthenticationCanceledException -->
<g id="node39" class="node"><title>\\Vinelab\\Auth\\Exceptions\\AuthenticationCanceledException</title>
<polygon fill="none" stroke="black" points="809.398,-401 642.602,-401 642.602,-365 809.398,-365 809.398,-401"/>
<text text-anchor="middle" x="726" y="-379.7" font-family="Times,serif" font-size="11.00">AuthenticationCanceledException</text>
</g>
<!-- \\Vinelab\\Auth\\Exceptions\\AuthenticationCanceledException&#45;&gt;\\Vinelab\\Auth\\Exceptions\\SocialAuthException -->
<g id="edge41" class="edge"><title>\\Vinelab\\Auth\\Exceptions\\AuthenticationCanceledException&#45;&gt;\\Vinelab\\Auth\\Exceptions\\SocialAuthException</title>
<path fill="none" stroke="black" d="M657.748,-401.18C652.228,-403.765 646.897,-406.692 642,-410 600.693,-437.905 613.524,-471.698 570,-496 543.94,-510.55 511.572,-516.555 483.495,-518.717"/>
<polygon fill="none" stroke="black" points="483.127,-515.233 473.364,-519.349 483.563,-522.22 483.127,-515.233"/>
</g>
<!-- \\Vinelab\\Auth\\Exceptions\\TwitterProfileException -->
<g id="node40" class="node"><title>\\Vinelab\\Auth\\Exceptions\\TwitterProfileException</title>
<polygon fill="none" stroke="black" points="787.411,-347 664.589,-347 664.589,-311 787.411,-311 787.411,-347"/>
<text text-anchor="middle" x="726" y="-325.7" font-family="Times,serif" font-size="11.00">TwitterProfileException</text>
</g>
<!-- \\Vinelab\\Auth\\Exceptions\\TwitterProfileException&#45;&gt;\\Vinelab\\Auth\\Exceptions\\SocialAuthException -->
<g id="edge43" class="edge"><title>\\Vinelab\\Auth\\Exceptions\\TwitterProfileException&#45;&gt;\\Vinelab\\Auth\\Exceptions\\SocialAuthException</title>
<path fill="none" stroke="black" d="M664.435,-342.432C656.341,-345.958 648.577,-350.402 642,-356 588.718,-401.35 626.937,-455.333 570,-496 545.124,-513.768 511.993,-519.988 483.104,-521.46"/>
<polygon fill="none" stroke="black" points="482.961,-517.963 473.083,-521.794 483.194,-524.959 482.961,-517.963"/>
</g>
<!-- \\Vinelab\\Auth\\Cache\\Store -->
<g id="node42" class="node"><title>\\Vinelab\\Auth\\Cache\\Store</title>
<polygon fill="none" stroke="black" points="445,-860 391,-860 391,-824 445,-824 445,-860"/>
<text text-anchor="middle" x="418" y="-838.7" font-family="Times,serif" font-size="11.00">Store</text>
</g>
<!-- \\Vinelab\\Auth\\Cache\\Store&#45;&gt;\\Vinelab\\Auth\\Contracts\\StoreInterface -->
<g id="edge45" class="edge"><title>\\Vinelab\\Auth\\Cache\\Store&#45;&gt;\\Vinelab\\Auth\\Contracts\\StoreInterface</title>
<path fill="none" stroke="black" stroke-dasharray="1,5" d="M390.811,-844.076C357.596,-848.059 300.503,-859.619 266,-893 200.501,-956.369 261.751,-1024.04 194,-1085 183.886,-1094.1 170.493,-1099.53 157.337,-1102.74"/>
<polygon fill="none" stroke="black" points="156.47,-1099.34 147.38,-1104.79 157.88,-1106.2 156.47,-1099.34"/>
</g>
<!-- \\Vinelab\\Auth\\Facades\\Auth -->
<g id="node44" class="node"><title>\\Vinelab\\Auth\\Facades\\Auth</title>
<polygon fill="none" stroke="black" points="753,-266 699,-266 699,-230 753,-230 753,-266"/>
<text text-anchor="middle" x="726" y="-244.7" font-family="Times,serif" font-size="11.00">Auth</text>
</g>
<!-- \\Illuminate\\Support\\Facades\\Facade -->
<g id="node65" class="node"><title>\\Illuminate\\Support\\Facades\\Facade</title>
<ellipse fill="none" stroke="black" cx="418" cy="-72" rx="150.473" ry="18"/>
<text text-anchor="middle" x="418" y="-67.8" font-family="Times,serif" font-size="14.00" fill="gray">\Illuminate\Support\Facades\Facade</text>
</g>
<!-- \\Vinelab\\Auth\\Facades\\Auth&#45;&gt;\\Illuminate\\Support\\Facades\\Facade -->
<g id="edge47" class="edge"><title>\\Vinelab\\Auth\\Facades\\Auth&#45;&gt;\\Illuminate\\Support\\Facades\\Facade</title>
<path fill="none" stroke="black" d="M698.777,-243.468C682.033,-239.995 660.143,-234.359 642,-226 566.041,-191.004 488.053,-130.36 447.475,-96.5577"/>
<polygon fill="none" stroke="black" points="449.542,-93.7231 439.634,-89.9709 445.04,-99.0829 449.542,-93.7231"/>
</g>
<!-- \\Vinelab\\Auth\\Auth -->
<g id="node45" class="node"><title>\\Vinelab\\Auth\\Auth</title>
<polygon fill="none" stroke="black" points="753,-212 699,-212 699,-176 753,-176 753,-212"/>
<text text-anchor="middle" x="726" y="-190.7" font-family="Times,serif" font-size="11.00">Auth</text>
</g>
<!-- \\Vinelab\\Auth\\AuthServiceProvider -->
<g id="node46" class="node"><title>\\Vinelab\\Auth\\AuthServiceProvider</title>
<polygon fill="none" stroke="black" points="780.359,-158 671.641,-158 671.641,-122 780.359,-122 780.359,-158"/>
<text text-anchor="middle" x="726" y="-136.7" font-family="Times,serif" font-size="11.00">AuthServiceProvider</text>
</g>
<!-- \\Illuminate\\Support\\ServiceProvider -->
<g id="node68" class="node"><title>\\Illuminate\\Support\\ServiceProvider</title>
<ellipse fill="none" stroke="black" cx="418" cy="-18" rx="151.638" ry="18"/>
<text text-anchor="middle" x="418" y="-13.8" font-family="Times,serif" font-size="14.00" fill="gray">\Illuminate\Support\ServiceProvider</text>
</g>
<!-- \\Vinelab\\Auth\\AuthServiceProvider&#45;&gt;\\Illuminate\\Support\\ServiceProvider -->
<g id="edge51" class="edge"><title>\\Vinelab\\Auth\\AuthServiceProvider&#45;&gt;\\Illuminate\\Support\\ServiceProvider</title>
<path fill="none" stroke="black" d="M701.768,-121.88C672.658,-100.127 620.446,-64.184 570,-45 557.999,-40.4363 545.163,-36.634 532.232,-33.4681"/>
<polygon fill="none" stroke="black" points="532.87,-30.0231 522.338,-31.1691 531.286,-36.8415 532.87,-30.0231"/>
</g>
</g>
</svg>
